<svg width="100%" height="100%" viewBox="0 0 800 600" version="1.1" xmlns="http://www.w3.org/2000/svg" xmlns:xlink="http://www.w3.org/1999/xlink">
  <rect fill="#343a40" x="0" y="0" width="800" height="600"></rect>
  <g fill-opacity="0.8" fill="#6c757d">
    <path d="M666.66,150 L133.33,150 C114.92,150 100,164.92 100,183.33 L100,483.33 C100,501.75 114.92,516.66 133.33,516.66 L666.66,516.66 C685.08,516.66 700,501.75 700,483.33 L700,183.33 C700,164.92 685.08,150 666.66,150 Z M666.66,483.33 L133.33,483.33 L133.33,183.33 L666.66,183.33 L666.66,483.33 Z M266.66,316.66 C266.66,280.08 296.75,250 333.33,250 C369.92,250 400,280.08 400,316.66 C400,353.25 369.92,383.33 333.33,383.33 C296.75,383.33 266.66,353.25 266.66,316.66 Z M616.66,433.33 L183.33,433.33 L300,266.66 L383.33,375 L500,258.33 L616.66,433.33 Z"></path>
  </g>
  <text x="50%" y="50%" fill="#adb5bd" font-family="Arial, sans-serif" font-size="30" dy=".3em" text-anchor="middle">Imagen no disponible</text>
</svg>